{
    "asset" : {
        "generator" : "Khronos glTF Blender I/O v1.7.33",
        "version" : "2.0"
    },
    "scene" : 0,
    "scenes" : [
        {
            "name" : "Scene",
            "nodes" : [
                0
            ]
        }
    ],
    "nodes" : [
        {
            "mesh" : 0,
            "name" : "Cube"
        }
    ],
    "materials" : [
        {
            "alphaMode" : "BLEND",
            "doubleSided" : true,
            "name" : "Excellent",
            "pbrMetallicRoughness" : {
                "baseColorFactor" : [
                    1,
                    1,
                    1,
                    0.5615384578704834
                ],
                "baseColorTexture" : {
                    "index" : 0
                },
                "metallicFactor" : 0.9384615421295166,
                "roughnessFactor" : 0.6230769753456116
            }
        },
        {
            "alphaMode" : "BLEND",
            "name" : "Transparan",
            "pbrMetallicRoughness" : {
                "baseColorFactor" : [
                    1,
                    1,
                    1,
                    0.08461534976959229
                ],
                "baseColorTexture" : {
                    "index" : 1
                },
                "metallicFactor" : 0,
                "roughnessFactor" : 0.5
            }
        }
    ],
    "meshes" : [
        {
            "name" : "Cube.001",
            "primitives" : [
                {
                    "attributes" : {
                        "POSITION" : 0,
                        "NORMAL" : 1,
                        "TEXCOORD_0" : 2
                    },
                    "indices" : 3,
                    "material" : 0
                },
                {
                    "attributes" : {
                        "POSITION" : 4,
                        "NORMAL" : 5,
                        "TEXCOORD_0" : 6
                    },
                    "indices" : 7,
                    "material" : 1
                }
            ]
        }
    ],
    "textures" : [
        {
            "sampler" : 0,
            "source" : 0
        },
        {
            "sampler" : 0,
            "source" : 1
        }
    ],
    "images" : [
        {
            "bufferView" : 4,
            "mimeType" : "image/png",
            "name" : "Excellent 1803 White"
        },
        {
            "bufferView" : 9,
            "mimeType" : "image/png",
            "name" : "upanda"
        }
    ],
    "accessors" : [
        {
            "bufferView" : 0,
            "componentType" : 5126,
            "count" : 2138,
            "max" : [
                1.7182631492614746,
                0.7850885987281799,
                2.6215097904205322
            ],
            "min" : [
                -1.7498524188995361,
                -0.0976925864815712,
                -0.5624567270278931
            ],
            "type" : "VEC3"
        },
        {
            "bufferView" : 1,
            "componentType" : 5126,
            "count" : 2138,
            "type" : "VEC3"
        },
        {
            "bufferView" : 2,
            "componentType" : 5126,
            "count" : 2138,
            "type" : "VEC2"
        },
        {
            "bufferView" : 3,
            "componentType" : 5123,
            "count" : 12168,
            "type" : "SCALAR"
        },
        {
            "bufferView" : 5,
            "componentType" : 5126,
            "count" : 244,
            "max" : [
                1.2039605379104614,
                0.7221170663833618,
                2.6054940223693848
            ],
            "min" : [
                -1.1869025230407715,
                -0.07428353279829025,
                2.3622400760650635
            ],
            "type" : "VEC3"
        },
        {
            "bufferView" : 6,
            "componentType" : 5126,
            "count" : 244,
            "type" : "VEC3"
        },
        {
            "bufferView" : 7,
            "componentType" : 5126,
            "count" : 244,
            "type" : "VEC2"
        },
        {
            "bufferView" : 8,
            "componentType" : 5123,
            "count" : 1440,
            "type" : "SCALAR"
        }
    ],
    "bufferViews" : [
        {
            "buffer" : 0,
            "byteLength" : 25656,
            "byteOffset" : 0
        },
        {
            "buffer" : 0,
            "byteLength" : 25656,
            "byteOffset" : 25656
        },
        {
            "buffer" : 0,
            "byteLength" : 17104,
            "byteOffset" : 51312
        },
        {
            "buffer" : 0,
            "byteLength" : 24336,
            "byteOffset" : 68416
        },
        {
            "buffer" : 0,
            "byteLength" : 100902,
            "byteOffset" : 92752
        },
        {
            "buffer" : 0,
            "byteLength" : 2928,
            "byteOffset" : 193656
        },
        {
            "buffer" : 0,
            "byteLength" : 2928,
            "byteOffset" : 196584
        },
        {
            "buffer" : 0,
            "byteLength" : 1952,
            "byteOffset" : 199512
        },
        {
            "buffer" : 0,
            "byteLength" : 2880,
            "byteOffset" : 201464
        },
        {
            "buffer" : 0,
            "byteLength" : 194590,
            "byteOffset" : 204344
        }
    ],
    "samplers" : [
        {
            "magFilter" : 9729,
            "minFilter" : 9987
        }
    ],
    "buffers" : [
        {
            "byteLength" : 398936,
            "uri" : "data:application/octet-stream;base64,"
        }
    ]
}
